# xmcd
#
# Track frame offsets: 
#        150
#        22692
#        44257
#        65472
#        90151
#        121893
#        143576
#        167933
#        186802
#        209001
#        229157
#        256382
#
# Disc length: 3832 seconds
#
# Revision: 0
# Processed by: cddbd v1.5.2PL0 Copyright (c) Steve Scherf et al.
# Submitted via: ExactAudioCopy v1.0b3
#
DISCID=9b0ef60c
DTITLE=侃侃 - DTS ES 正品 爱深藏
DYEAR=2012
DGENRE=DTS ES
TTITLE0=爱的箴言
TTITLE1=橄榄树
TTITLE2=把爱深藏
TTITLE3=嘀嗒
TTITLE4=隔世离空的红颜
TTITLE5=黄玫瑰
TTITLE6=那江烟花
TTITLE7=飘摇
TTITLE8=山楂树之恋
TTITLE9=星语心愿
TTITLE10=叶子
TTITLE11=有没有人告诉你
EXTD=
EXTT0=
EXTT1=
EXTT2=
EXTT3=
EXTT4=
EXTT5=
EXTT6=
EXTT7=
EXTT8=
EXTT9=
EXTT10=
EXTT11=
PLAYORDER=
